<?xml version="1.0" encoding="UTF-8"?>
<svg width="160px" height="165px" viewBox="0 0 160 165" version="1.1" xmlns="http://www.w3.org/2000/svg" xmlns:xlink="http://www.w3.org/1999/xlink">
    <!-- Generator: sketchtool 51.3 (57544) - http://www.bohemiancoding.com/sketch -->
    <title>E2102AC0-D8D6-46A7-B7BF-6A85A07C7BDC</title>
    <desc>Created with sketchtool.</desc>
    <defs></defs>
    <g id="Cards-UI" stroke="none" stroke-width="1" fill="none" fill-rule="evenodd">
        <g id="logins" transform="translate(-638.000000, -162.000000)" fill="#E2F3FB" fill-rule="nonzero" stroke-width="3.5">
            <g id="11-multimeda-camera" transform="translate(640.000000, 164.000000)">
                <path d="M76.2658703,161 C69.3151756,160.818314 62.5912753,159.697011 56.209489,157.754839 C30.1545186,149.825517 9.80208021,128.213534 3,101 L90,101 L57.971346,158.124319" id="Layer-1" stroke="#3E59E0"></path>
                <path d="M133,136.573125 C113.726547,156.911177 85.3049925,164.809314 59,157.086474 L101.229571,80 L132.504555,137.089813 C132.670558,136.918287 132.835707,136.746055 133,136.573125 L133,136.573125 Z" id="Layer-2" stroke="#F5A623"></path>
                <path d="M152.457317,60 C159.429113,87.4756515 151.821838,117.059066 132.609533,137 L91,60.7032606 L152.631577,60.7032606 C152.574481,60.4684169 152.516393,60.233995 152.457317,60 Z" id="Layer-3" stroke="#F5A623"></path>
                <path d="M99.5233312,3 C126.665153,10.3852414 147.988838,32.2678331 155,60 L68,60 L100.215857,3.19289199 C99.985171,3.12746869 99.7543265,3.06317201 99.5233312,3 Z" id="Layer-4" stroke="#F5A623"></path>
                <path d="M22,23.426875 C41.273453,3.08882231 69.6950075,-4.80931327 96,2.9135261 L53.7704293,80 L22.4954447,22.9101872 C22.3294422,23.0817127 22.1642933,23.2539445 22,23.4268752 L22,23.426875 Z" id="Layer-5" stroke="#3E59E0"></path>
                <path d="M2.36752687,100 C-4.2985435,72.4724114 3.34197417,42.9531456 22.3904667,23 L64,100 L2.36752687,100 Z" id="Layer-6" stroke="#3E59E0"></path>
            </g>
        </g>
    </g>
</svg>